<mxfile host="65bd71144e">
    <diagram id="QTWPbp-raj6-GNQl-8pq" name="Memory">
        <mxGraphModel dx="1557" dy="940" grid="1" gridSize="10" guides="1" tooltips="1" connect="1" arrows="1" fold="1" page="1" pageScale="1" pageWidth="827" pageHeight="1169" background="#ffffff" math="0" shadow="0">
            <root>
                <mxCell id="0"/>
                <mxCell id="1" parent="0"/>
                <mxCell id="2" value="adressビットの流れ" style="text;html=1;align=center;verticalAlign=middle;resizable=0;points=[];autosize=1;strokeColor=none;fillColor=none;fontColor=#000000;" parent="1" vertex="1">
                    <mxGeometry y="120" width="120" height="20" as="geometry"/>
                </mxCell>
                <mxCell id="3" value="" style="shape=table;startSize=0;container=1;collapsible=0;childLayout=tableLayout;fontColor=#FFFFFF;" parent="1" vertex="1">
                    <mxGeometry y="150" width="640" height="90" as="geometry"/>
                </mxCell>
                <mxCell id="4" value="" style="shape=partialRectangle;collapsible=0;dropTarget=0;pointerEvents=0;fillColor=none;top=0;left=0;bottom=0;right=0;points=[[0,0.5],[1,0.5]];portConstraint=eastwest;fontColor=#000000;" parent="3" vertex="1">
                    <mxGeometry width="640" height="45" as="geometry"/>
                </mxCell>
                <mxCell id="5" value="15" style="shape=partialRectangle;html=1;whiteSpace=wrap;connectable=0;overflow=hidden;fillColor=none;top=0;left=0;bottom=0;right=0;pointerEvents=1;fontColor=#FFFFFF;" parent="4" vertex="1">
                    <mxGeometry width="40" height="45" as="geometry">
                        <mxRectangle width="40" height="45" as="alternateBounds"/>
                    </mxGeometry>
                </mxCell>
                <mxCell id="6" value="14" style="shape=partialRectangle;html=1;whiteSpace=wrap;connectable=0;overflow=hidden;fillColor=none;top=0;left=0;bottom=0;right=0;pointerEvents=1;fontColor=#FFFFFF;" parent="4" vertex="1">
                    <mxGeometry x="40" width="40" height="45" as="geometry">
                        <mxRectangle width="40" height="45" as="alternateBounds"/>
                    </mxGeometry>
                </mxCell>
                <mxCell id="7" value="13" style="shape=partialRectangle;html=1;whiteSpace=wrap;connectable=0;overflow=hidden;fillColor=none;top=0;left=0;bottom=0;right=0;pointerEvents=1;fontColor=#FFFFFF;" parent="4" vertex="1">
                    <mxGeometry x="80" width="40" height="45" as="geometry">
                        <mxRectangle width="40" height="45" as="alternateBounds"/>
                    </mxGeometry>
                </mxCell>
                <mxCell id="8" value="12" style="shape=partialRectangle;html=1;whiteSpace=wrap;connectable=0;overflow=hidden;fillColor=none;top=0;left=0;bottom=0;right=0;pointerEvents=1;fontColor=#FFFFFF;" parent="4" vertex="1">
                    <mxGeometry x="120" width="40" height="45" as="geometry">
                        <mxRectangle width="40" height="45" as="alternateBounds"/>
                    </mxGeometry>
                </mxCell>
                <mxCell id="9" value="11" style="shape=partialRectangle;html=1;whiteSpace=wrap;connectable=0;overflow=hidden;fillColor=none;top=0;left=0;bottom=0;right=0;pointerEvents=1;fontColor=#FFFFFF;" parent="4" vertex="1">
                    <mxGeometry x="160" width="40" height="45" as="geometry">
                        <mxRectangle width="40" height="45" as="alternateBounds"/>
                    </mxGeometry>
                </mxCell>
                <mxCell id="10" value="10" style="shape=partialRectangle;html=1;whiteSpace=wrap;connectable=0;overflow=hidden;fillColor=none;top=0;left=0;bottom=0;right=0;pointerEvents=1;fontColor=#FFFFFF;" parent="4" vertex="1">
                    <mxGeometry x="200" width="40" height="45" as="geometry">
                        <mxRectangle width="40" height="45" as="alternateBounds"/>
                    </mxGeometry>
                </mxCell>
                <mxCell id="11" value="9" style="shape=partialRectangle;html=1;whiteSpace=wrap;connectable=0;overflow=hidden;fillColor=none;top=0;left=0;bottom=0;right=0;pointerEvents=1;fontColor=#FFFFFF;" parent="4" vertex="1">
                    <mxGeometry x="240" width="40" height="45" as="geometry">
                        <mxRectangle width="40" height="45" as="alternateBounds"/>
                    </mxGeometry>
                </mxCell>
                <mxCell id="12" value="8" style="shape=partialRectangle;html=1;whiteSpace=wrap;connectable=0;overflow=hidden;fillColor=none;top=0;left=0;bottom=0;right=0;pointerEvents=1;fontColor=#FFFFFF;" parent="4" vertex="1">
                    <mxGeometry x="280" width="40" height="45" as="geometry">
                        <mxRectangle width="40" height="45" as="alternateBounds"/>
                    </mxGeometry>
                </mxCell>
                <mxCell id="13" value="7" style="shape=partialRectangle;html=1;whiteSpace=wrap;connectable=0;overflow=hidden;fillColor=none;top=0;left=0;bottom=0;right=0;pointerEvents=1;fontColor=#FFFFFF;" parent="4" vertex="1">
                    <mxGeometry x="320" width="40" height="45" as="geometry">
                        <mxRectangle width="40" height="45" as="alternateBounds"/>
                    </mxGeometry>
                </mxCell>
                <mxCell id="14" value="6" style="shape=partialRectangle;html=1;whiteSpace=wrap;connectable=0;overflow=hidden;fillColor=none;top=0;left=0;bottom=0;right=0;pointerEvents=1;fontColor=#FFFFFF;" parent="4" vertex="1">
                    <mxGeometry x="360" width="40" height="45" as="geometry">
                        <mxRectangle width="40" height="45" as="alternateBounds"/>
                    </mxGeometry>
                </mxCell>
                <mxCell id="15" value="5" style="shape=partialRectangle;html=1;whiteSpace=wrap;connectable=0;overflow=hidden;fillColor=none;top=0;left=0;bottom=0;right=0;pointerEvents=1;fontColor=#FFFFFF;" parent="4" vertex="1">
                    <mxGeometry x="400" width="40" height="45" as="geometry">
                        <mxRectangle width="40" height="45" as="alternateBounds"/>
                    </mxGeometry>
                </mxCell>
                <mxCell id="16" value="4" style="shape=partialRectangle;html=1;whiteSpace=wrap;connectable=0;overflow=hidden;fillColor=none;top=0;left=0;bottom=0;right=0;pointerEvents=1;fontColor=#FFFFFF;" parent="4" vertex="1">
                    <mxGeometry x="440" width="40" height="45" as="geometry">
                        <mxRectangle width="40" height="45" as="alternateBounds"/>
                    </mxGeometry>
                </mxCell>
                <mxCell id="17" value="3" style="shape=partialRectangle;html=1;whiteSpace=wrap;connectable=0;overflow=hidden;fillColor=none;top=0;left=0;bottom=0;right=0;pointerEvents=1;fontColor=#FFFFFF;" parent="4" vertex="1">
                    <mxGeometry x="480" width="40" height="45" as="geometry">
                        <mxRectangle width="40" height="45" as="alternateBounds"/>
                    </mxGeometry>
                </mxCell>
                <mxCell id="18" value="2" style="shape=partialRectangle;html=1;whiteSpace=wrap;connectable=0;overflow=hidden;fillColor=none;top=0;left=0;bottom=0;right=0;pointerEvents=1;fontColor=#FFFFFF;" parent="4" vertex="1">
                    <mxGeometry x="520" width="40" height="45" as="geometry">
                        <mxRectangle width="40" height="45" as="alternateBounds"/>
                    </mxGeometry>
                </mxCell>
                <mxCell id="19" value="1" style="shape=partialRectangle;html=1;whiteSpace=wrap;connectable=0;overflow=hidden;fillColor=none;top=0;left=0;bottom=0;right=0;pointerEvents=1;fontColor=#FFFFFF;" parent="4" vertex="1">
                    <mxGeometry x="560" width="40" height="45" as="geometry">
                        <mxRectangle width="40" height="45" as="alternateBounds"/>
                    </mxGeometry>
                </mxCell>
                <mxCell id="20" value="0" style="shape=partialRectangle;html=1;whiteSpace=wrap;connectable=0;overflow=hidden;fillColor=none;top=0;left=0;bottom=0;right=0;pointerEvents=1;fontColor=#FFFFFF;" parent="4" vertex="1">
                    <mxGeometry x="600" width="40" height="45" as="geometry">
                        <mxRectangle width="40" height="45" as="alternateBounds"/>
                    </mxGeometry>
                </mxCell>
                <mxCell id="21" value="" style="shape=partialRectangle;collapsible=0;dropTarget=0;pointerEvents=0;fillColor=none;top=0;left=0;bottom=0;right=0;points=[[0,0.5],[1,0.5]];portConstraint=eastwest;fontColor=#000000;" parent="3" vertex="1">
                    <mxGeometry y="45" width="640" height="45" as="geometry"/>
                </mxCell>
                <mxCell id="22" value="0" style="shape=partialRectangle;html=1;whiteSpace=wrap;connectable=0;overflow=hidden;fillColor=none;top=0;left=0;bottom=0;right=0;pointerEvents=1;fontColor=#FFFFFF;" parent="21" vertex="1">
                    <mxGeometry width="40" height="45" as="geometry">
                        <mxRectangle width="40" height="45" as="alternateBounds"/>
                    </mxGeometry>
                </mxCell>
                <mxCell id="23" value="0" style="shape=partialRectangle;html=1;whiteSpace=wrap;connectable=0;overflow=hidden;fillColor=#a20025;top=0;left=0;bottom=0;right=0;pointerEvents=1;fontColor=#ffffff;strokeColor=#6F0000;" parent="21" vertex="1">
                    <mxGeometry x="40" width="40" height="45" as="geometry">
                        <mxRectangle width="40" height="45" as="alternateBounds"/>
                    </mxGeometry>
                </mxCell>
                <mxCell id="24" value="" style="shape=partialRectangle;html=1;whiteSpace=wrap;connectable=0;overflow=hidden;fillColor=#1ba1e2;top=0;left=0;bottom=0;right=0;pointerEvents=1;fontColor=#ffffff;strokeColor=#006EAF;" parent="21" vertex="1">
                    <mxGeometry x="80" width="40" height="45" as="geometry">
                        <mxRectangle width="40" height="45" as="alternateBounds"/>
                    </mxGeometry>
                </mxCell>
                <mxCell id="25" value="" style="shape=partialRectangle;html=1;whiteSpace=wrap;connectable=0;overflow=hidden;fillColor=#1ba1e2;top=0;left=0;bottom=0;right=0;pointerEvents=1;fontColor=#ffffff;strokeColor=#006EAF;" parent="21" vertex="1">
                    <mxGeometry x="120" width="40" height="45" as="geometry">
                        <mxRectangle width="40" height="45" as="alternateBounds"/>
                    </mxGeometry>
                </mxCell>
                <mxCell id="26" value="" style="shape=partialRectangle;html=1;whiteSpace=wrap;connectable=0;overflow=hidden;fillColor=#1ba1e2;top=0;left=0;bottom=0;right=0;pointerEvents=1;fontColor=#ffffff;strokeColor=#006EAF;" parent="21" vertex="1">
                    <mxGeometry x="160" width="40" height="45" as="geometry">
                        <mxRectangle width="40" height="45" as="alternateBounds"/>
                    </mxGeometry>
                </mxCell>
                <mxCell id="27" value="" style="shape=partialRectangle;html=1;whiteSpace=wrap;connectable=0;overflow=hidden;fillColor=#1ba1e2;top=0;left=0;bottom=0;right=0;pointerEvents=1;fontColor=#ffffff;strokeColor=#006EAF;" parent="21" vertex="1">
                    <mxGeometry x="200" width="40" height="45" as="geometry">
                        <mxRectangle width="40" height="45" as="alternateBounds"/>
                    </mxGeometry>
                </mxCell>
                <mxCell id="28" value="" style="shape=partialRectangle;html=1;whiteSpace=wrap;connectable=0;overflow=hidden;fillColor=#1ba1e2;top=0;left=0;bottom=0;right=0;pointerEvents=1;fontColor=#ffffff;strokeColor=#006EAF;" parent="21" vertex="1">
                    <mxGeometry x="240" width="40" height="45" as="geometry">
                        <mxRectangle width="40" height="45" as="alternateBounds"/>
                    </mxGeometry>
                </mxCell>
                <mxCell id="29" value="" style="shape=partialRectangle;html=1;whiteSpace=wrap;connectable=0;overflow=hidden;fillColor=#1ba1e2;top=0;left=0;bottom=0;right=0;pointerEvents=1;fontColor=#ffffff;strokeColor=#006EAF;" parent="21" vertex="1">
                    <mxGeometry x="280" width="40" height="45" as="geometry">
                        <mxRectangle width="40" height="45" as="alternateBounds"/>
                    </mxGeometry>
                </mxCell>
                <mxCell id="30" value="" style="shape=partialRectangle;html=1;whiteSpace=wrap;connectable=0;overflow=hidden;fillColor=#1ba1e2;top=0;left=0;bottom=0;right=0;pointerEvents=1;fontColor=#ffffff;strokeColor=#006EAF;" parent="21" vertex="1">
                    <mxGeometry x="320" width="40" height="45" as="geometry">
                        <mxRectangle width="40" height="45" as="alternateBounds"/>
                    </mxGeometry>
                </mxCell>
                <mxCell id="31" value="" style="shape=partialRectangle;html=1;whiteSpace=wrap;connectable=0;overflow=hidden;top=0;left=0;bottom=0;right=0;pointerEvents=1;fillColor=#1ba1e2;fontColor=#ffffff;strokeColor=#006EAF;" parent="21" vertex="1">
                    <mxGeometry x="360" width="40" height="45" as="geometry">
                        <mxRectangle width="40" height="45" as="alternateBounds"/>
                    </mxGeometry>
                </mxCell>
                <mxCell id="32" value="" style="shape=partialRectangle;html=1;whiteSpace=wrap;connectable=0;overflow=hidden;fillColor=#1ba1e2;top=0;left=0;bottom=0;right=0;pointerEvents=1;fontColor=#ffffff;strokeColor=#006EAF;" parent="21" vertex="1">
                    <mxGeometry x="400" width="40" height="45" as="geometry">
                        <mxRectangle width="40" height="45" as="alternateBounds"/>
                    </mxGeometry>
                </mxCell>
                <mxCell id="33" value="" style="shape=partialRectangle;html=1;whiteSpace=wrap;connectable=0;overflow=hidden;fillColor=#1ba1e2;top=0;left=0;bottom=0;right=0;pointerEvents=1;fontColor=#ffffff;strokeColor=#006EAF;" parent="21" vertex="1">
                    <mxGeometry x="440" width="40" height="45" as="geometry">
                        <mxRectangle width="40" height="45" as="alternateBounds"/>
                    </mxGeometry>
                </mxCell>
                <mxCell id="34" value="" style="shape=partialRectangle;html=1;whiteSpace=wrap;connectable=0;overflow=hidden;fillColor=#1ba1e2;top=0;left=0;bottom=0;right=0;pointerEvents=1;fontColor=#ffffff;strokeColor=#006EAF;" parent="21" vertex="1">
                    <mxGeometry x="480" width="40" height="45" as="geometry">
                        <mxRectangle width="40" height="45" as="alternateBounds"/>
                    </mxGeometry>
                </mxCell>
                <mxCell id="35" value="" style="shape=partialRectangle;html=1;whiteSpace=wrap;connectable=0;overflow=hidden;fillColor=#1ba1e2;top=0;left=0;bottom=0;right=0;pointerEvents=1;fontColor=#ffffff;strokeColor=#000000;" parent="21" vertex="1">
                    <mxGeometry x="520" width="40" height="45" as="geometry">
                        <mxRectangle width="40" height="45" as="alternateBounds"/>
                    </mxGeometry>
                </mxCell>
                <mxCell id="36" value="" style="shape=partialRectangle;html=1;whiteSpace=wrap;connectable=0;overflow=hidden;fillColor=#1ba1e2;top=0;left=0;bottom=0;right=0;pointerEvents=1;fontColor=#ffffff;strokeColor=#000000;" parent="21" vertex="1">
                    <mxGeometry x="560" width="40" height="45" as="geometry">
                        <mxRectangle width="40" height="45" as="alternateBounds"/>
                    </mxGeometry>
                </mxCell>
                <mxCell id="37" style="shape=partialRectangle;html=1;whiteSpace=wrap;connectable=0;overflow=hidden;fillColor=#1ba1e2;top=0;left=0;bottom=0;right=0;pointerEvents=1;fontColor=#ffffff;strokeColor=#000000;" parent="21" vertex="1">
                    <mxGeometry x="600" width="40" height="45" as="geometry">
                        <mxRectangle width="40" height="45" as="alternateBounds"/>
                    </mxGeometry>
                </mxCell>
                <mxCell id="38" style="edgeStyle=none;html=1;entryX=0.062;entryY=1.014;entryDx=0;entryDy=0;entryPerimeter=0;fontColor=#FFFFFF;strokeColor=#000000;exitX=1;exitY=0.5;exitDx=0;exitDy=0;" parent="1" source="39" target="21" edge="1">
                    <mxGeometry relative="1" as="geometry"/>
                </mxCell>
                <mxCell id="39" value="使用しない" style="whiteSpace=wrap;html=1;rounded=1;arcSize=50;align=center;verticalAlign=middle;strokeWidth=1;autosize=1;spacing=4;treeFolding=1;treeMoving=1;newEdgeStyle={&quot;edgeStyle&quot;:&quot;entityRelationEdgeStyle&quot;,&quot;startArrow&quot;:&quot;none&quot;,&quot;endArrow&quot;:&quot;none&quot;,&quot;segment&quot;:10,&quot;curved&quot;:1};fontColor=#FFFFFF;" parent="1" vertex="1">
                    <mxGeometry x="-110" y="310" width="100" height="30" as="geometry"/>
                </mxCell>
                <mxCell id="40" value="" style="edgeStyle=entityRelationEdgeStyle;startArrow=none;endArrow=none;segment=10;curved=1;fontColor=#FFFFFF;strokeColor=#000000;exitX=0.005;exitY=1.052;exitDx=0;exitDy=0;exitPerimeter=0;entryX=0;entryY=0.25;entryDx=0;entryDy=0;" parent="1" source="21" target="39" edge="1">
                    <mxGeometry relative="1" as="geometry">
                        <mxPoint x="120" y="330" as="sourcePoint"/>
                    </mxGeometry>
                </mxCell>
                <mxCell id="41" style="edgeStyle=none;html=1;entryX=0.06;entryY=1.042;entryDx=0;entryDy=0;entryPerimeter=0;fontColor=#FFFFFF;strokeColor=#000000;" parent="1" source="43" target="21" edge="1">
                    <mxGeometry relative="1" as="geometry"/>
                </mxCell>
                <mxCell id="42" style="edgeStyle=none;html=1;fontColor=#FFFFFF;strokeColor=#000000;entryX=0.122;entryY=1.069;entryDx=0;entryDy=0;entryPerimeter=0;" parent="1" source="43" target="21" edge="1">
                    <mxGeometry relative="1" as="geometry">
                        <mxPoint x="190" y="270" as="targetPoint"/>
                    </mxGeometry>
                </mxCell>
                <mxCell id="43" value="RAM16K&lt;br&gt;or&lt;br&gt;Screen, Keyboard" style="whiteSpace=wrap;html=1;rounded=1;arcSize=50;align=center;verticalAlign=middle;strokeWidth=1;autosize=1;spacing=4;treeFolding=1;treeMoving=1;newEdgeStyle={&quot;edgeStyle&quot;:&quot;entityRelationEdgeStyle&quot;,&quot;startArrow&quot;:&quot;none&quot;,&quot;endArrow&quot;:&quot;none&quot;,&quot;segment&quot;:10,&quot;curved&quot;:1};fontColor=#ffffff;fillColor=#a20025;strokeColor=#6F0000;" parent="1" vertex="1">
                    <mxGeometry x="5" y="295" width="140" height="60" as="geometry"/>
                </mxCell>
                <mxCell id="44" style="edgeStyle=none;html=1;entryX=0.132;entryY=1.056;entryDx=0;entryDy=0;entryPerimeter=0;fontColor=#FFFFFF;strokeColor=#000000;" parent="1" source="46" target="21" edge="1">
                    <mxGeometry relative="1" as="geometry"/>
                </mxCell>
                <mxCell id="45" style="edgeStyle=none;html=1;entryX=0.994;entryY=1.052;entryDx=0;entryDy=0;entryPerimeter=0;fontColor=#FFFFFF;strokeColor=#000000;" parent="1" source="46" target="21" edge="1">
                    <mxGeometry relative="1" as="geometry"/>
                </mxCell>
                <mxCell id="46" value="RAM16Kの場合 -&amp;gt; RAM16Kないのアドレス&lt;br&gt;Screen, Keyboardの場合 -&amp;gt; &lt;font color=&quot;#ff99ff&quot;&gt;Screen, Keyboardの場合を参照&lt;/font&gt;" style="whiteSpace=wrap;html=1;rounded=1;arcSize=50;align=center;verticalAlign=middle;strokeWidth=1;autosize=1;spacing=4;treeFolding=1;treeMoving=1;newEdgeStyle={&quot;edgeStyle&quot;:&quot;entityRelationEdgeStyle&quot;,&quot;startArrow&quot;:&quot;none&quot;,&quot;endArrow&quot;:&quot;none&quot;,&quot;segment&quot;:10,&quot;curved&quot;:1};fontColor=#ffffff;labelBackgroundColor=none;fillColor=#1ba1e2;strokeColor=#006EAF;" parent="1" vertex="1">
                    <mxGeometry x="185" y="305" width="360" height="40" as="geometry"/>
                </mxCell>
                <mxCell id="47" value="0 -&amp;gt; RAM16K&lt;br&gt;1 -&amp;gt; Screen, Keyboard" style="text;html=1;align=center;verticalAlign=middle;resizable=0;points=[];autosize=1;strokeColor=#6F0000;fillColor=#a20025;fontColor=#ffffff;" parent="1" vertex="1">
                    <mxGeometry x="5" y="370" width="140" height="30" as="geometry"/>
                </mxCell>
                <mxCell id="48" value="&lt;font color=&quot;#ff99ff&quot;&gt;Screen, Keybaordの場合&lt;br&gt;(14番目のビットが「1」の場合)&lt;br&gt;&lt;/font&gt;" style="text;html=1;align=center;verticalAlign=middle;resizable=0;points=[];autosize=1;strokeColor=#006EAF;fillColor=#1ba1e2;fontColor=#ffffff;fontSize=18;labelBackgroundColor=none;" parent="1" vertex="1">
                    <mxGeometry x="-40" y="445" width="270" height="50" as="geometry"/>
                </mxCell>
                <mxCell id="49" value="&lt;font style=&quot;font-size: 17px&quot;&gt;&lt;font color=&quot;#000000&quot; style=&quot;font-size: 17px&quot;&gt;&lt;b&gt;スクリーン用メモリマップ(16384 - 24575)&lt;br&gt;&lt;/b&gt;&lt;/font&gt;&lt;span style=&quot;color: rgb(0 , 51 , 153) ; font-family: &amp;#34;meiryo ui&amp;#34; , &amp;#34;meiryo&amp;#34; , &amp;#34;ヒラギノ角ゴ pro w3&amp;#34; , &amp;#34;hiragino kaku gothic pro&amp;#34; , &amp;#34;ｍｓ ｐゴシック&amp;#34; , &amp;#34;osaka&amp;#34; , sans-serif ; font-weight: 700 ; letter-spacing: 1px ; text-align: left ; background-color: rgb(255 , 255 , 255)&quot;&gt;0100 0000 0000 0000 ~&amp;nbsp;&lt;/span&gt;&lt;span style=&quot;color: rgb(0 , 51 , 153) ; font-family: &amp;#34;meiryo ui&amp;#34; , &amp;#34;meiryo&amp;#34; , &amp;#34;ヒラギノ角ゴ pro w3&amp;#34; , &amp;#34;hiragino kaku gothic pro&amp;#34; , &amp;#34;ｍｓ ｐゴシック&amp;#34; , &amp;#34;osaka&amp;#34; , sans-serif ; font-weight: 700 ; letter-spacing: 1px ; text-align: left ; background-color: rgb(255 , 255 , 255)&quot;&gt;0101 1111 1111 1111&lt;/span&gt;&lt;/font&gt;&lt;font color=&quot;#000000&quot;&gt;&lt;br&gt;&lt;/font&gt;" style="text;html=1;align=center;verticalAlign=middle;resizable=0;points=[];autosize=1;strokeColor=none;fillColor=none;fontSize=18;fontColor=#FF99FF;" parent="1" vertex="1">
                    <mxGeometry x="-30" y="550" width="500" height="50" as="geometry"/>
                </mxCell>
                <mxCell id="50" value="&lt;font style=&quot;font-size: 17px&quot;&gt;&lt;font color=&quot;#000000&quot; style=&quot;font-size: 17px&quot;&gt;&lt;b&gt;キーボード用メモリマップ(24576)&lt;br&gt;&lt;/b&gt;&lt;/font&gt;&lt;/font&gt;&lt;span style=&quot;color: rgb(0 , 51 , 153) ; font-family: &amp;#34;meiryo ui&amp;#34; , &amp;#34;meiryo&amp;#34; , &amp;#34;ヒラギノ角ゴ pro w3&amp;#34; , &amp;#34;hiragino kaku gothic pro&amp;#34; , &amp;#34;ｍｓ ｐゴシック&amp;#34; , &amp;#34;osaka&amp;#34; , sans-serif ; font-size: 17px ; font-weight: 700 ; letter-spacing: 1px ; text-align: left ; background-color: rgb(255 , 255 , 255)&quot;&gt;0110 0000 0000 0000&lt;/span&gt;&lt;font color=&quot;#000000&quot;&gt;&lt;br&gt;&lt;/font&gt;" style="text;html=1;align=center;verticalAlign=middle;resizable=0;points=[];autosize=1;strokeColor=none;fillColor=none;fontSize=18;fontColor=#FF99FF;" parent="1" vertex="1">
                    <mxGeometry x="70" y="640" width="280" height="50" as="geometry"/>
                </mxCell>
                <mxCell id="51" value="遷移図" style="text;html=1;align=center;verticalAlign=middle;resizable=0;points=[];autosize=1;strokeColor=#006EAF;fillColor=#1ba1e2;fontColor=#ffffff;fontSize=18;labelBackgroundColor=none;" parent="1" vertex="1">
                    <mxGeometry x="-40" y="740" width="70" height="30" as="geometry"/>
                </mxCell>
                <mxCell id="52" style="edgeStyle=none;html=1;entryX=0.175;entryY=0.25;entryDx=0;entryDy=0;strokeColor=#000000;entryPerimeter=0;" parent="1" source="56" edge="1" target="119">
                    <mxGeometry relative="1" as="geometry">
                        <mxPoint x="220" y="810" as="targetPoint"/>
                    </mxGeometry>
                </mxCell>
                <mxCell id="53" style="edgeStyle=none;html=1;entryX=0.175;entryY=0.75;entryDx=0;entryDy=0;strokeColor=#000000;entryPerimeter=0;" parent="1" source="56" edge="1" target="119">
                    <mxGeometry relative="1" as="geometry">
                        <mxPoint x="220" y="910" as="targetPoint"/>
                    </mxGeometry>
                </mxCell>
                <mxCell id="141" style="edgeStyle=none;html=1;entryX=0.175;entryY=0.25;entryDx=0;entryDy=0;entryPerimeter=0;strokeColor=#000000;" edge="1" parent="1" source="56" target="140">
                    <mxGeometry relative="1" as="geometry"/>
                </mxCell>
                <mxCell id="142" style="edgeStyle=none;html=1;entryX=0.175;entryY=0.75;entryDx=0;entryDy=0;entryPerimeter=0;strokeColor=#000000;" edge="1" parent="1" source="56" target="140">
                    <mxGeometry relative="1" as="geometry"/>
                </mxCell>
                <mxCell id="56" value="Dmux&lt;br&gt;8Way" style="shadow=0;dashed=0;align=center;html=1;strokeWidth=1;shape=mxgraph.electrical.abstract.mux2;operation=demux;" parent="1" vertex="1">
                    <mxGeometry x="90" y="910" width="80" height="120" as="geometry"/>
                </mxCell>
                <mxCell id="120" style="edgeStyle=none;html=1;exitX=0.5;exitY=0;exitDx=0;exitDy=0;" edge="1" parent="1" source="60">
                    <mxGeometry relative="1" as="geometry">
                        <mxPoint x="310" y="1000" as="targetPoint"/>
                    </mxGeometry>
                </mxCell>
                <mxCell id="135" style="edgeStyle=none;html=1;strokeColor=#000000;" edge="1" parent="1" source="60" target="133">
                    <mxGeometry relative="1" as="geometry"/>
                </mxCell>
                <mxCell id="60" value="RAM8K&lt;br&gt;(SCREEN)" style="rounded=0;whiteSpace=wrap;html=1;" parent="1" vertex="1">
                    <mxGeometry x="360" y="990" width="80" height="40" as="geometry"/>
                </mxCell>
                <mxCell id="137" style="edgeStyle=none;html=1;entryX=0;entryY=0.65;entryDx=0;entryDy=3;entryPerimeter=0;strokeColor=#000000;" edge="1" parent="1" source="63" target="133">
                    <mxGeometry relative="1" as="geometry"/>
                </mxCell>
                <mxCell id="63" value="Register&lt;br&gt;(KEYBOARD)" style="rounded=0;whiteSpace=wrap;html=1;" parent="1" vertex="1">
                    <mxGeometry x="360" y="1090" width="80" height="40" as="geometry"/>
                </mxCell>
                <mxCell id="67" value="" style="endArrow=classic;html=1;strokeColor=#000000;" parent="1" edge="1">
                    <mxGeometry width="50" height="50" relative="1" as="geometry">
                        <mxPoint x="-20" y="935" as="sourcePoint"/>
                        <mxPoint x="80" y="935" as="targetPoint"/>
                        <Array as="points">
                            <mxPoint x="80" y="935"/>
                        </Array>
                    </mxGeometry>
                </mxCell>
                <mxCell id="68" value="in[16]" style="edgeLabel;html=1;align=center;verticalAlign=middle;resizable=0;points=[];" parent="67" vertex="1" connectable="0">
                    <mxGeometry x="-0.2154" y="3" relative="1" as="geometry">
                        <mxPoint as="offset"/>
                    </mxGeometry>
                </mxCell>
                <mxCell id="69" value="" style="endArrow=classic;html=1;strokeColor=#000000;" parent="1" edge="1">
                    <mxGeometry width="50" height="50" relative="1" as="geometry">
                        <mxPoint x="-20" y="969.2299999999998" as="sourcePoint"/>
                        <mxPoint x="80" y="969.2299999999998" as="targetPoint"/>
                        <Array as="points">
                            <mxPoint x="80" y="969.23"/>
                        </Array>
                    </mxGeometry>
                </mxCell>
                <mxCell id="70" value="load" style="edgeLabel;html=1;align=center;verticalAlign=middle;resizable=0;points=[];" parent="69" vertex="1" connectable="0">
                    <mxGeometry x="-0.2154" y="3" relative="1" as="geometry">
                        <mxPoint as="offset"/>
                    </mxGeometry>
                </mxCell>
                <mxCell id="71" value="" style="endArrow=classic;html=1;strokeColor=#000000;" parent="1" edge="1">
                    <mxGeometry width="50" height="50" relative="1" as="geometry">
                        <mxPoint x="-20" y="1000" as="sourcePoint"/>
                        <mxPoint x="80" y="1000" as="targetPoint"/>
                        <Array as="points">
                            <mxPoint x="80" y="1000"/>
                        </Array>
                    </mxGeometry>
                </mxCell>
                <mxCell id="72" value="adress[15]" style="edgeLabel;html=1;align=center;verticalAlign=middle;resizable=0;points=[];" parent="71" vertex="1" connectable="0">
                    <mxGeometry x="-0.2154" y="3" relative="1" as="geometry">
                        <mxPoint as="offset"/>
                    </mxGeometry>
                </mxCell>
                <mxCell id="74" value="" style="shape=table;startSize=0;container=1;collapsible=0;childLayout=tableLayout;fontColor=#FFFFFF;" parent="1" vertex="1">
                    <mxGeometry x="-10" y="1200" width="640" height="90" as="geometry"/>
                </mxCell>
                <mxCell id="75" value="" style="shape=partialRectangle;collapsible=0;dropTarget=0;pointerEvents=0;fillColor=none;top=0;left=0;bottom=0;right=0;points=[[0,0.5],[1,0.5]];portConstraint=eastwest;fontColor=#000000;" parent="74" vertex="1">
                    <mxGeometry width="640" height="45" as="geometry"/>
                </mxCell>
                <mxCell id="76" value="15" style="shape=partialRectangle;html=1;whiteSpace=wrap;connectable=0;overflow=hidden;fillColor=none;top=0;left=0;bottom=0;right=0;pointerEvents=1;fontColor=#FFFFFF;" parent="75" vertex="1">
                    <mxGeometry width="40" height="45" as="geometry">
                        <mxRectangle width="40" height="45" as="alternateBounds"/>
                    </mxGeometry>
                </mxCell>
                <mxCell id="77" value="14" style="shape=partialRectangle;html=1;whiteSpace=wrap;connectable=0;overflow=hidden;fillColor=none;top=0;left=0;bottom=0;right=0;pointerEvents=1;fontColor=#FFFFFF;" parent="75" vertex="1">
                    <mxGeometry x="40" width="40" height="45" as="geometry">
                        <mxRectangle width="40" height="45" as="alternateBounds"/>
                    </mxGeometry>
                </mxCell>
                <mxCell id="78" value="13" style="shape=partialRectangle;html=1;whiteSpace=wrap;connectable=0;overflow=hidden;fillColor=none;top=0;left=0;bottom=0;right=0;pointerEvents=1;fontColor=#FFFFFF;" parent="75" vertex="1">
                    <mxGeometry x="80" width="40" height="45" as="geometry">
                        <mxRectangle width="40" height="45" as="alternateBounds"/>
                    </mxGeometry>
                </mxCell>
                <mxCell id="79" value="12" style="shape=partialRectangle;html=1;whiteSpace=wrap;connectable=0;overflow=hidden;fillColor=none;top=0;left=0;bottom=0;right=0;pointerEvents=1;fontColor=#FFFFFF;" parent="75" vertex="1">
                    <mxGeometry x="120" width="40" height="45" as="geometry">
                        <mxRectangle width="40" height="45" as="alternateBounds"/>
                    </mxGeometry>
                </mxCell>
                <mxCell id="80" value="11" style="shape=partialRectangle;html=1;whiteSpace=wrap;connectable=0;overflow=hidden;fillColor=none;top=0;left=0;bottom=0;right=0;pointerEvents=1;fontColor=#FFFFFF;" parent="75" vertex="1">
                    <mxGeometry x="160" width="40" height="45" as="geometry">
                        <mxRectangle width="40" height="45" as="alternateBounds"/>
                    </mxGeometry>
                </mxCell>
                <mxCell id="81" value="10" style="shape=partialRectangle;html=1;whiteSpace=wrap;connectable=0;overflow=hidden;fillColor=none;top=0;left=0;bottom=0;right=0;pointerEvents=1;fontColor=#FFFFFF;" parent="75" vertex="1">
                    <mxGeometry x="200" width="40" height="45" as="geometry">
                        <mxRectangle width="40" height="45" as="alternateBounds"/>
                    </mxGeometry>
                </mxCell>
                <mxCell id="82" value="9" style="shape=partialRectangle;html=1;whiteSpace=wrap;connectable=0;overflow=hidden;fillColor=none;top=0;left=0;bottom=0;right=0;pointerEvents=1;fontColor=#FFFFFF;" parent="75" vertex="1">
                    <mxGeometry x="240" width="40" height="45" as="geometry">
                        <mxRectangle width="40" height="45" as="alternateBounds"/>
                    </mxGeometry>
                </mxCell>
                <mxCell id="83" value="8" style="shape=partialRectangle;html=1;whiteSpace=wrap;connectable=0;overflow=hidden;fillColor=none;top=0;left=0;bottom=0;right=0;pointerEvents=1;fontColor=#FFFFFF;" parent="75" vertex="1">
                    <mxGeometry x="280" width="40" height="45" as="geometry">
                        <mxRectangle width="40" height="45" as="alternateBounds"/>
                    </mxGeometry>
                </mxCell>
                <mxCell id="84" value="7" style="shape=partialRectangle;html=1;whiteSpace=wrap;connectable=0;overflow=hidden;fillColor=none;top=0;left=0;bottom=0;right=0;pointerEvents=1;fontColor=#FFFFFF;" parent="75" vertex="1">
                    <mxGeometry x="320" width="40" height="45" as="geometry">
                        <mxRectangle width="40" height="45" as="alternateBounds"/>
                    </mxGeometry>
                </mxCell>
                <mxCell id="85" value="6" style="shape=partialRectangle;html=1;whiteSpace=wrap;connectable=0;overflow=hidden;fillColor=none;top=0;left=0;bottom=0;right=0;pointerEvents=1;fontColor=#FFFFFF;" parent="75" vertex="1">
                    <mxGeometry x="360" width="40" height="45" as="geometry">
                        <mxRectangle width="40" height="45" as="alternateBounds"/>
                    </mxGeometry>
                </mxCell>
                <mxCell id="86" value="5" style="shape=partialRectangle;html=1;whiteSpace=wrap;connectable=0;overflow=hidden;fillColor=none;top=0;left=0;bottom=0;right=0;pointerEvents=1;fontColor=#FFFFFF;" parent="75" vertex="1">
                    <mxGeometry x="400" width="40" height="45" as="geometry">
                        <mxRectangle width="40" height="45" as="alternateBounds"/>
                    </mxGeometry>
                </mxCell>
                <mxCell id="87" value="4" style="shape=partialRectangle;html=1;whiteSpace=wrap;connectable=0;overflow=hidden;fillColor=none;top=0;left=0;bottom=0;right=0;pointerEvents=1;fontColor=#FFFFFF;" parent="75" vertex="1">
                    <mxGeometry x="440" width="40" height="45" as="geometry">
                        <mxRectangle width="40" height="45" as="alternateBounds"/>
                    </mxGeometry>
                </mxCell>
                <mxCell id="88" value="3" style="shape=partialRectangle;html=1;whiteSpace=wrap;connectable=0;overflow=hidden;fillColor=none;top=0;left=0;bottom=0;right=0;pointerEvents=1;fontColor=#FFFFFF;" parent="75" vertex="1">
                    <mxGeometry x="480" width="40" height="45" as="geometry">
                        <mxRectangle width="40" height="45" as="alternateBounds"/>
                    </mxGeometry>
                </mxCell>
                <mxCell id="89" value="2" style="shape=partialRectangle;html=1;whiteSpace=wrap;connectable=0;overflow=hidden;fillColor=none;top=0;left=0;bottom=0;right=0;pointerEvents=1;fontColor=#FFFFFF;" parent="75" vertex="1">
                    <mxGeometry x="520" width="40" height="45" as="geometry">
                        <mxRectangle width="40" height="45" as="alternateBounds"/>
                    </mxGeometry>
                </mxCell>
                <mxCell id="90" value="1" style="shape=partialRectangle;html=1;whiteSpace=wrap;connectable=0;overflow=hidden;fillColor=none;top=0;left=0;bottom=0;right=0;pointerEvents=1;fontColor=#FFFFFF;" parent="75" vertex="1">
                    <mxGeometry x="560" width="40" height="45" as="geometry">
                        <mxRectangle width="40" height="45" as="alternateBounds"/>
                    </mxGeometry>
                </mxCell>
                <mxCell id="91" value="0" style="shape=partialRectangle;html=1;whiteSpace=wrap;connectable=0;overflow=hidden;fillColor=none;top=0;left=0;bottom=0;right=0;pointerEvents=1;fontColor=#FFFFFF;" parent="75" vertex="1">
                    <mxGeometry x="600" width="40" height="45" as="geometry">
                        <mxRectangle width="40" height="45" as="alternateBounds"/>
                    </mxGeometry>
                </mxCell>
                <mxCell id="92" value="" style="shape=partialRectangle;collapsible=0;dropTarget=0;pointerEvents=0;fillColor=none;top=0;left=0;bottom=0;right=0;points=[[0,0.5],[1,0.5]];portConstraint=eastwest;fontColor=#000000;" parent="74" vertex="1">
                    <mxGeometry y="45" width="640" height="45" as="geometry"/>
                </mxCell>
                <mxCell id="93" value="0" style="shape=partialRectangle;html=1;whiteSpace=wrap;connectable=0;overflow=hidden;fillColor=none;top=0;left=0;bottom=0;right=0;pointerEvents=1;fontColor=#FFFFFF;" parent="92" vertex="1">
                    <mxGeometry width="40" height="45" as="geometry">
                        <mxRectangle width="40" height="45" as="alternateBounds"/>
                    </mxGeometry>
                </mxCell>
                <mxCell id="94" value="" style="shape=partialRectangle;html=1;whiteSpace=wrap;connectable=0;overflow=hidden;fillColor=#a20025;top=0;left=0;bottom=0;right=0;pointerEvents=1;fontColor=#ffffff;strokeColor=#6F0000;" parent="92" vertex="1">
                    <mxGeometry x="40" width="40" height="45" as="geometry">
                        <mxRectangle width="40" height="45" as="alternateBounds"/>
                    </mxGeometry>
                </mxCell>
                <mxCell id="95" value="" style="shape=partialRectangle;html=1;whiteSpace=wrap;connectable=0;overflow=hidden;fillColor=#a20025;top=0;left=0;bottom=0;right=0;pointerEvents=1;fontColor=#ffffff;strokeColor=#6F0000;" parent="92" vertex="1">
                    <mxGeometry x="80" width="40" height="45" as="geometry">
                        <mxRectangle width="40" height="45" as="alternateBounds"/>
                    </mxGeometry>
                </mxCell>
                <mxCell id="96" value="" style="shape=partialRectangle;html=1;whiteSpace=wrap;connectable=0;overflow=hidden;fillColor=#a20025;top=0;left=0;bottom=0;right=0;pointerEvents=1;fontColor=#ffffff;strokeColor=#6F0000;" parent="92" vertex="1">
                    <mxGeometry x="120" width="40" height="45" as="geometry">
                        <mxRectangle width="40" height="45" as="alternateBounds"/>
                    </mxGeometry>
                </mxCell>
                <mxCell id="97" value="" style="shape=partialRectangle;html=1;whiteSpace=wrap;connectable=0;overflow=hidden;fillColor=#1ba1e2;top=0;left=0;bottom=0;right=0;pointerEvents=1;fontColor=#ffffff;strokeColor=#006EAF;" parent="92" vertex="1">
                    <mxGeometry x="160" width="40" height="45" as="geometry">
                        <mxRectangle width="40" height="45" as="alternateBounds"/>
                    </mxGeometry>
                </mxCell>
                <mxCell id="98" value="" style="shape=partialRectangle;html=1;whiteSpace=wrap;connectable=0;overflow=hidden;fillColor=#1ba1e2;top=0;left=0;bottom=0;right=0;pointerEvents=1;fontColor=#ffffff;strokeColor=#006EAF;" parent="92" vertex="1">
                    <mxGeometry x="200" width="40" height="45" as="geometry">
                        <mxRectangle width="40" height="45" as="alternateBounds"/>
                    </mxGeometry>
                </mxCell>
                <mxCell id="99" value="" style="shape=partialRectangle;html=1;whiteSpace=wrap;connectable=0;overflow=hidden;fillColor=#1ba1e2;top=0;left=0;bottom=0;right=0;pointerEvents=1;fontColor=#ffffff;strokeColor=#006EAF;" parent="92" vertex="1">
                    <mxGeometry x="240" width="40" height="45" as="geometry">
                        <mxRectangle width="40" height="45" as="alternateBounds"/>
                    </mxGeometry>
                </mxCell>
                <mxCell id="100" value="" style="shape=partialRectangle;html=1;whiteSpace=wrap;connectable=0;overflow=hidden;fillColor=#1ba1e2;top=0;left=0;bottom=0;right=0;pointerEvents=1;fontColor=#ffffff;strokeColor=#006EAF;" parent="92" vertex="1">
                    <mxGeometry x="280" width="40" height="45" as="geometry">
                        <mxRectangle width="40" height="45" as="alternateBounds"/>
                    </mxGeometry>
                </mxCell>
                <mxCell id="101" value="" style="shape=partialRectangle;html=1;whiteSpace=wrap;connectable=0;overflow=hidden;fillColor=#1ba1e2;top=0;left=0;bottom=0;right=0;pointerEvents=1;fontColor=#ffffff;strokeColor=#006EAF;" parent="92" vertex="1">
                    <mxGeometry x="320" width="40" height="45" as="geometry">
                        <mxRectangle width="40" height="45" as="alternateBounds"/>
                    </mxGeometry>
                </mxCell>
                <mxCell id="102" value="" style="shape=partialRectangle;html=1;whiteSpace=wrap;connectable=0;overflow=hidden;top=0;left=0;bottom=0;right=0;pointerEvents=1;fillColor=#1ba1e2;fontColor=#ffffff;strokeColor=#006EAF;" parent="92" vertex="1">
                    <mxGeometry x="360" width="40" height="45" as="geometry">
                        <mxRectangle width="40" height="45" as="alternateBounds"/>
                    </mxGeometry>
                </mxCell>
                <mxCell id="103" value="" style="shape=partialRectangle;html=1;whiteSpace=wrap;connectable=0;overflow=hidden;fillColor=#1ba1e2;top=0;left=0;bottom=0;right=0;pointerEvents=1;fontColor=#ffffff;strokeColor=#006EAF;" parent="92" vertex="1">
                    <mxGeometry x="400" width="40" height="45" as="geometry">
                        <mxRectangle width="40" height="45" as="alternateBounds"/>
                    </mxGeometry>
                </mxCell>
                <mxCell id="104" value="" style="shape=partialRectangle;html=1;whiteSpace=wrap;connectable=0;overflow=hidden;fillColor=#1ba1e2;top=0;left=0;bottom=0;right=0;pointerEvents=1;fontColor=#ffffff;strokeColor=#006EAF;" parent="92" vertex="1">
                    <mxGeometry x="440" width="40" height="45" as="geometry">
                        <mxRectangle width="40" height="45" as="alternateBounds"/>
                    </mxGeometry>
                </mxCell>
                <mxCell id="105" value="" style="shape=partialRectangle;html=1;whiteSpace=wrap;connectable=0;overflow=hidden;fillColor=#1ba1e2;top=0;left=0;bottom=0;right=0;pointerEvents=1;fontColor=#ffffff;strokeColor=#006EAF;" parent="92" vertex="1">
                    <mxGeometry x="480" width="40" height="45" as="geometry">
                        <mxRectangle width="40" height="45" as="alternateBounds"/>
                    </mxGeometry>
                </mxCell>
                <mxCell id="106" value="" style="shape=partialRectangle;html=1;whiteSpace=wrap;connectable=0;overflow=hidden;fillColor=#1ba1e2;top=0;left=0;bottom=0;right=0;pointerEvents=1;fontColor=#ffffff;strokeColor=#000000;" parent="92" vertex="1">
                    <mxGeometry x="520" width="40" height="45" as="geometry">
                        <mxRectangle width="40" height="45" as="alternateBounds"/>
                    </mxGeometry>
                </mxCell>
                <mxCell id="107" value="" style="shape=partialRectangle;html=1;whiteSpace=wrap;connectable=0;overflow=hidden;fillColor=#1ba1e2;top=0;left=0;bottom=0;right=0;pointerEvents=1;fontColor=#ffffff;strokeColor=#000000;" parent="92" vertex="1">
                    <mxGeometry x="560" width="40" height="45" as="geometry">
                        <mxRectangle width="40" height="45" as="alternateBounds"/>
                    </mxGeometry>
                </mxCell>
                <mxCell id="108" style="shape=partialRectangle;html=1;whiteSpace=wrap;connectable=0;overflow=hidden;fillColor=#1ba1e2;top=0;left=0;bottom=0;right=0;pointerEvents=1;fontColor=#ffffff;strokeColor=#000000;" parent="92" vertex="1">
                    <mxGeometry x="600" width="40" height="45" as="geometry">
                        <mxRectangle width="40" height="45" as="alternateBounds"/>
                    </mxGeometry>
                </mxCell>
                <mxCell id="109" style="edgeStyle=none;html=1;entryX=0.06;entryY=0.999;entryDx=0;entryDy=0;entryPerimeter=0;fontColor=#FFFFFF;strokeColor=#000000;exitX=1;exitY=0.5;exitDx=0;exitDy=0;" parent="1" source="110" target="92" edge="1">
                    <mxGeometry relative="1" as="geometry"/>
                </mxCell>
                <mxCell id="110" value="使用しない" style="whiteSpace=wrap;html=1;rounded=1;arcSize=50;align=center;verticalAlign=middle;strokeWidth=1;autosize=1;spacing=4;treeFolding=1;treeMoving=1;newEdgeStyle={&quot;edgeStyle&quot;:&quot;entityRelationEdgeStyle&quot;,&quot;startArrow&quot;:&quot;none&quot;,&quot;endArrow&quot;:&quot;none&quot;,&quot;segment&quot;:10,&quot;curved&quot;:1};fontColor=#FFFFFF;" parent="1" vertex="1">
                    <mxGeometry x="-80" y="1360" width="100" height="30" as="geometry"/>
                </mxCell>
                <mxCell id="111" value="" style="edgeStyle=entityRelationEdgeStyle;startArrow=none;endArrow=none;segment=10;curved=1;fontColor=#FFFFFF;strokeColor=#000000;exitX=0.005;exitY=1.052;exitDx=0;exitDy=0;exitPerimeter=0;entryX=0;entryY=0.25;entryDx=0;entryDy=0;" parent="1" source="92" target="110" edge="1">
                    <mxGeometry relative="1" as="geometry">
                        <mxPoint x="110" y="1380" as="sourcePoint"/>
                    </mxGeometry>
                </mxCell>
                <mxCell id="112" style="edgeStyle=none;html=1;entryX=0.066;entryY=1.046;entryDx=0;entryDy=0;entryPerimeter=0;fontColor=#FFFFFF;strokeColor=#000000;" parent="1" source="114" target="92" edge="1">
                    <mxGeometry relative="1" as="geometry"/>
                </mxCell>
                <mxCell id="113" style="edgeStyle=none;html=1;fontColor=#FFFFFF;strokeColor=#000000;" parent="1" source="114" edge="1">
                    <mxGeometry relative="1" as="geometry">
                        <mxPoint x="150" y="1290" as="targetPoint"/>
                        <Array as="points">
                            <mxPoint x="160" y="1290"/>
                        </Array>
                    </mxGeometry>
                </mxCell>
                <mxCell id="114" value="RAM16K&lt;br&gt;RAM4K&lt;br&gt;Register&lt;br&gt;選び" style="whiteSpace=wrap;html=1;rounded=1;arcSize=50;align=center;verticalAlign=middle;strokeWidth=1;autosize=1;spacing=4;treeFolding=1;treeMoving=1;newEdgeStyle={&quot;edgeStyle&quot;:&quot;entityRelationEdgeStyle&quot;,&quot;startArrow&quot;:&quot;none&quot;,&quot;endArrow&quot;:&quot;none&quot;,&quot;segment&quot;:10,&quot;curved&quot;:1};fontColor=#ffffff;fillColor=#a20025;strokeColor=#6F0000;" parent="1" vertex="1">
                    <mxGeometry x="30" y="1340" width="90" height="70" as="geometry"/>
                </mxCell>
                <mxCell id="115" style="edgeStyle=none;html=1;fontColor=#FFFFFF;strokeColor=#000000;entryX=0.261;entryY=1.078;entryDx=0;entryDy=0;entryPerimeter=0;" parent="1" source="117" edge="1" target="92">
                    <mxGeometry relative="1" as="geometry">
                        <mxPoint x="110" y="1290" as="targetPoint"/>
                    </mxGeometry>
                </mxCell>
                <mxCell id="116" style="edgeStyle=none;html=1;entryX=0.994;entryY=1.052;entryDx=0;entryDy=0;entryPerimeter=0;fontColor=#FFFFFF;strokeColor=#000000;" parent="1" source="117" target="92" edge="1">
                    <mxGeometry relative="1" as="geometry"/>
                </mxCell>
                <mxCell id="117" value="RAM内" style="whiteSpace=wrap;html=1;rounded=1;arcSize=50;align=center;verticalAlign=middle;strokeWidth=1;autosize=1;spacing=4;treeFolding=1;treeMoving=1;newEdgeStyle={&quot;edgeStyle&quot;:&quot;entityRelationEdgeStyle&quot;,&quot;startArrow&quot;:&quot;none&quot;,&quot;endArrow&quot;:&quot;none&quot;,&quot;segment&quot;:10,&quot;curved&quot;:1};fontColor=#ffffff;labelBackgroundColor=none;fillColor=#1ba1e2;strokeColor=#006EAF;" parent="1" vertex="1">
                    <mxGeometry x="315" y="1360" width="80" height="30" as="geometry"/>
                </mxCell>
                <mxCell id="118" value="&quot;何桁台&quot;&lt;br&gt;のRAMかみたいなイメージ" style="text;html=1;align=center;verticalAlign=middle;resizable=0;points=[];autosize=1;strokeColor=#6F0000;fillColor=#a20025;fontColor=#ffffff;" parent="1" vertex="1">
                    <mxGeometry x="-5" y="1410" width="160" height="30" as="geometry"/>
                </mxCell>
                <mxCell id="127" style="edgeStyle=none;html=1;entryX=0.175;entryY=0.25;entryDx=0;entryDy=0;entryPerimeter=0;strokeColor=#000000;" edge="1" parent="1" source="119" target="126">
                    <mxGeometry relative="1" as="geometry"/>
                </mxCell>
                <mxCell id="119" value="OR①" style="shape=xor;whiteSpace=wrap;html=1;direction=east;" vertex="1" parent="1">
                    <mxGeometry x="175" y="810" width="50" height="60" as="geometry"/>
                </mxCell>
                <mxCell id="134" style="edgeStyle=none;html=1;strokeColor=#000000;" edge="1" parent="1" source="121" target="133">
                    <mxGeometry relative="1" as="geometry"/>
                </mxCell>
                <mxCell id="121" value="RAM16K" style="rounded=0;whiteSpace=wrap;html=1;" vertex="1" parent="1">
                    <mxGeometry x="360" y="840" width="80" height="80" as="geometry"/>
                </mxCell>
                <mxCell id="123" style="edgeStyle=none;html=1;entryX=0.175;entryY=0.25;entryDx=0;entryDy=0;strokeColor=#000000;entryPerimeter=0;" edge="1" parent="1" target="125">
                    <mxGeometry relative="1" as="geometry">
                        <mxPoint x="215" y="850" as="targetPoint"/>
                        <mxPoint x="145" y="951.5873015873015" as="sourcePoint"/>
                    </mxGeometry>
                </mxCell>
                <mxCell id="124" style="edgeStyle=none;html=1;entryX=0.175;entryY=0.75;entryDx=0;entryDy=0;strokeColor=#000000;entryPerimeter=0;" edge="1" parent="1" target="125">
                    <mxGeometry relative="1" as="geometry">
                        <mxPoint x="215" y="950" as="targetPoint"/>
                        <mxPoint x="145" y="966.8253968253966" as="sourcePoint"/>
                    </mxGeometry>
                </mxCell>
                <mxCell id="128" style="edgeStyle=none;html=1;entryX=0.175;entryY=0.75;entryDx=0;entryDy=0;entryPerimeter=0;strokeColor=#000000;" edge="1" parent="1" source="125" target="126">
                    <mxGeometry relative="1" as="geometry"/>
                </mxCell>
                <mxCell id="125" value="OR②" style="shape=xor;whiteSpace=wrap;html=1;direction=east;" vertex="1" parent="1">
                    <mxGeometry x="175" y="880" width="50" height="60" as="geometry"/>
                </mxCell>
                <mxCell id="129" style="edgeStyle=none;html=1;strokeColor=#000000;" edge="1" parent="1" source="126" target="121">
                    <mxGeometry relative="1" as="geometry"/>
                </mxCell>
                <mxCell id="126" value="OR③" style="shape=xor;whiteSpace=wrap;html=1;direction=east;" vertex="1" parent="1">
                    <mxGeometry x="250" y="850" width="50" height="60" as="geometry"/>
                </mxCell>
                <mxCell id="136" style="edgeStyle=none;html=1;entryX=0;entryY=0.65;entryDx=0;entryDy=3;entryPerimeter=0;strokeColor=#000000;" edge="1" parent="1" target="133">
                    <mxGeometry relative="1" as="geometry">
                        <mxPoint x="440" y="1029.4545454545455" as="sourcePoint"/>
                    </mxGeometry>
                </mxCell>
                <mxCell id="138" value="out[16]" style="edgeStyle=none;html=1;strokeColor=#000000;" edge="1" parent="1" source="133">
                    <mxGeometry relative="1" as="geometry">
                        <mxPoint x="700" y="990" as="targetPoint"/>
                    </mxGeometry>
                </mxCell>
                <mxCell id="133" value="Mux&lt;br&gt;8Way16" style="shadow=0;dashed=0;align=center;html=1;strokeWidth=1;shape=mxgraph.electrical.abstract.mux2;" vertex="1" parent="1">
                    <mxGeometry x="510" y="930" width="80" height="120" as="geometry"/>
                </mxCell>
                <mxCell id="143" style="edgeStyle=none;html=1;entryX=0;entryY=0.5;entryDx=0;entryDy=0;strokeColor=#000000;" edge="1" parent="1" source="140" target="60">
                    <mxGeometry relative="1" as="geometry"/>
                </mxCell>
                <mxCell id="140" value="OR④" style="shape=xor;whiteSpace=wrap;html=1;direction=east;" vertex="1" parent="1">
                    <mxGeometry x="220" y="960" width="50" height="60" as="geometry"/>
                </mxCell>
                <mxCell id="144" value="" style="shape=table;startSize=0;container=1;collapsible=0;childLayout=tableLayout;" vertex="1" parent="1">
                    <mxGeometry y="1510" width="180" height="280" as="geometry"/>
                </mxCell>
                <mxCell id="145" value="" style="shape=partialRectangle;collapsible=0;dropTarget=0;pointerEvents=0;fillColor=none;top=0;left=0;bottom=0;right=0;points=[[0,0.5],[1,0.5]];portConstraint=eastwest;" vertex="1" parent="144">
                    <mxGeometry width="180" height="40" as="geometry"/>
                </mxCell>
                <mxCell id="146" value="回路名" style="shape=partialRectangle;html=1;whiteSpace=wrap;connectable=0;overflow=hidden;fillColor=none;top=0;left=0;bottom=0;right=0;pointerEvents=1;" vertex="1" parent="145">
                    <mxGeometry width="60" height="40" as="geometry">
                        <mxRectangle width="60" height="40" as="alternateBounds"/>
                    </mxGeometry>
                </mxCell>
                <mxCell id="147" value="n(サイズ)" style="shape=partialRectangle;html=1;whiteSpace=wrap;connectable=0;overflow=hidden;fillColor=none;top=0;left=0;bottom=0;right=0;pointerEvents=1;" vertex="1" parent="145">
                    <mxGeometry x="60" width="60" height="40" as="geometry">
                        <mxRectangle width="60" height="40" as="alternateBounds"/>
                    </mxGeometry>
                </mxCell>
                <mxCell id="166" value="k(bit数)" style="shape=partialRectangle;html=1;whiteSpace=wrap;connectable=0;overflow=hidden;fillColor=none;top=0;left=0;bottom=0;right=0;pointerEvents=1;" vertex="1" parent="145">
                    <mxGeometry x="120" width="60" height="40" as="geometry">
                        <mxRectangle width="60" height="40" as="alternateBounds"/>
                    </mxGeometry>
                </mxCell>
                <mxCell id="148" value="" style="shape=partialRectangle;collapsible=0;dropTarget=0;pointerEvents=0;fillColor=none;top=0;left=0;bottom=0;right=0;points=[[0,0.5],[1,0.5]];portConstraint=eastwest;" vertex="1" parent="144">
                    <mxGeometry y="40" width="180" height="40" as="geometry"/>
                </mxCell>
                <mxCell id="149" value="RAM8" style="shape=partialRectangle;html=1;whiteSpace=wrap;connectable=0;overflow=hidden;fillColor=none;top=0;left=0;bottom=0;right=0;pointerEvents=1;" vertex="1" parent="148">
                    <mxGeometry width="60" height="40" as="geometry">
                        <mxRectangle width="60" height="40" as="alternateBounds"/>
                    </mxGeometry>
                </mxCell>
                <mxCell id="150" value="8" style="shape=partialRectangle;html=1;whiteSpace=wrap;connectable=0;overflow=hidden;fillColor=none;top=0;left=0;bottom=0;right=0;pointerEvents=1;" vertex="1" parent="148">
                    <mxGeometry x="60" width="60" height="40" as="geometry">
                        <mxRectangle width="60" height="40" as="alternateBounds"/>
                    </mxGeometry>
                </mxCell>
                <mxCell id="167" value="3" style="shape=partialRectangle;html=1;whiteSpace=wrap;connectable=0;overflow=hidden;fillColor=none;top=0;left=0;bottom=0;right=0;pointerEvents=1;" vertex="1" parent="148">
                    <mxGeometry x="120" width="60" height="40" as="geometry">
                        <mxRectangle width="60" height="40" as="alternateBounds"/>
                    </mxGeometry>
                </mxCell>
                <mxCell id="151" value="" style="shape=partialRectangle;collapsible=0;dropTarget=0;pointerEvents=0;fillColor=none;top=0;left=0;bottom=0;right=0;points=[[0,0.5],[1,0.5]];portConstraint=eastwest;" vertex="1" parent="144">
                    <mxGeometry y="80" width="180" height="40" as="geometry"/>
                </mxCell>
                <mxCell id="152" value="RAM64" style="shape=partialRectangle;html=1;whiteSpace=wrap;connectable=0;overflow=hidden;fillColor=none;top=0;left=0;bottom=0;right=0;pointerEvents=1;" vertex="1" parent="151">
                    <mxGeometry width="60" height="40" as="geometry">
                        <mxRectangle width="60" height="40" as="alternateBounds"/>
                    </mxGeometry>
                </mxCell>
                <mxCell id="153" value="64" style="shape=partialRectangle;html=1;whiteSpace=wrap;connectable=0;overflow=hidden;fillColor=none;top=0;left=0;bottom=0;right=0;pointerEvents=1;" vertex="1" parent="151">
                    <mxGeometry x="60" width="60" height="40" as="geometry">
                        <mxRectangle width="60" height="40" as="alternateBounds"/>
                    </mxGeometry>
                </mxCell>
                <mxCell id="168" value="6" style="shape=partialRectangle;html=1;whiteSpace=wrap;connectable=0;overflow=hidden;fillColor=none;top=0;left=0;bottom=0;right=0;pointerEvents=1;" vertex="1" parent="151">
                    <mxGeometry x="120" width="60" height="40" as="geometry">
                        <mxRectangle width="60" height="40" as="alternateBounds"/>
                    </mxGeometry>
                </mxCell>
                <mxCell id="154" value="" style="shape=partialRectangle;collapsible=0;dropTarget=0;pointerEvents=0;fillColor=none;top=0;left=0;bottom=0;right=0;points=[[0,0.5],[1,0.5]];portConstraint=eastwest;" vertex="1" parent="144">
                    <mxGeometry y="120" width="180" height="40" as="geometry"/>
                </mxCell>
                <mxCell id="155" value="RAM512" style="shape=partialRectangle;html=1;whiteSpace=wrap;connectable=0;overflow=hidden;fillColor=none;top=0;left=0;bottom=0;right=0;pointerEvents=1;" vertex="1" parent="154">
                    <mxGeometry width="60" height="40" as="geometry">
                        <mxRectangle width="60" height="40" as="alternateBounds"/>
                    </mxGeometry>
                </mxCell>
                <mxCell id="156" value="512" style="shape=partialRectangle;html=1;whiteSpace=wrap;connectable=0;overflow=hidden;fillColor=none;top=0;left=0;bottom=0;right=0;pointerEvents=1;" vertex="1" parent="154">
                    <mxGeometry x="60" width="60" height="40" as="geometry">
                        <mxRectangle width="60" height="40" as="alternateBounds"/>
                    </mxGeometry>
                </mxCell>
                <mxCell id="169" value="9" style="shape=partialRectangle;html=1;whiteSpace=wrap;connectable=0;overflow=hidden;fillColor=none;top=0;left=0;bottom=0;right=0;pointerEvents=1;" vertex="1" parent="154">
                    <mxGeometry x="120" width="60" height="40" as="geometry">
                        <mxRectangle width="60" height="40" as="alternateBounds"/>
                    </mxGeometry>
                </mxCell>
                <mxCell id="157" value="" style="shape=partialRectangle;collapsible=0;dropTarget=0;pointerEvents=0;fillColor=none;top=0;left=0;bottom=0;right=0;points=[[0,0.5],[1,0.5]];portConstraint=eastwest;" vertex="1" parent="144">
                    <mxGeometry y="160" width="180" height="40" as="geometry"/>
                </mxCell>
                <mxCell id="158" value="RAM4K" style="shape=partialRectangle;html=1;whiteSpace=wrap;connectable=0;overflow=hidden;fillColor=none;top=0;left=0;bottom=0;right=0;pointerEvents=1;" vertex="1" parent="157">
                    <mxGeometry width="60" height="40" as="geometry">
                        <mxRectangle width="60" height="40" as="alternateBounds"/>
                    </mxGeometry>
                </mxCell>
                <mxCell id="159" value="4096" style="shape=partialRectangle;html=1;whiteSpace=wrap;connectable=0;overflow=hidden;fillColor=none;top=0;left=0;bottom=0;right=0;pointerEvents=1;" vertex="1" parent="157">
                    <mxGeometry x="60" width="60" height="40" as="geometry">
                        <mxRectangle width="60" height="40" as="alternateBounds"/>
                    </mxGeometry>
                </mxCell>
                <mxCell id="170" value="12" style="shape=partialRectangle;html=1;whiteSpace=wrap;connectable=0;overflow=hidden;fillColor=none;top=0;left=0;bottom=0;right=0;pointerEvents=1;" vertex="1" parent="157">
                    <mxGeometry x="120" width="60" height="40" as="geometry">
                        <mxRectangle width="60" height="40" as="alternateBounds"/>
                    </mxGeometry>
                </mxCell>
                <mxCell id="160" value="" style="shape=partialRectangle;collapsible=0;dropTarget=0;pointerEvents=0;fillColor=none;top=0;left=0;bottom=0;right=0;points=[[0,0.5],[1,0.5]];portConstraint=eastwest;" vertex="1" parent="144">
                    <mxGeometry y="200" width="180" height="40" as="geometry"/>
                </mxCell>
                <mxCell id="161" value="RAM16K" style="shape=partialRectangle;html=1;whiteSpace=wrap;connectable=0;overflow=hidden;fillColor=none;top=0;left=0;bottom=0;right=0;pointerEvents=1;" vertex="1" parent="160">
                    <mxGeometry width="60" height="40" as="geometry">
                        <mxRectangle width="60" height="40" as="alternateBounds"/>
                    </mxGeometry>
                </mxCell>
                <mxCell id="162" value="16384" style="shape=partialRectangle;html=1;whiteSpace=wrap;connectable=0;overflow=hidden;fillColor=none;top=0;left=0;bottom=0;right=0;pointerEvents=1;" vertex="1" parent="160">
                    <mxGeometry x="60" width="60" height="40" as="geometry">
                        <mxRectangle width="60" height="40" as="alternateBounds"/>
                    </mxGeometry>
                </mxCell>
                <mxCell id="171" value="14" style="shape=partialRectangle;html=1;whiteSpace=wrap;connectable=0;overflow=hidden;fillColor=none;top=0;left=0;bottom=0;right=0;pointerEvents=1;" vertex="1" parent="160">
                    <mxGeometry x="120" width="60" height="40" as="geometry">
                        <mxRectangle width="60" height="40" as="alternateBounds"/>
                    </mxGeometry>
                </mxCell>
                <mxCell id="163" value="" style="shape=partialRectangle;collapsible=0;dropTarget=0;pointerEvents=0;fillColor=none;top=0;left=0;bottom=0;right=0;points=[[0,0.5],[1,0.5]];portConstraint=eastwest;" vertex="1" parent="144">
                    <mxGeometry y="240" width="180" height="40" as="geometry"/>
                </mxCell>
                <mxCell id="164" value="RAM32K" style="shape=partialRectangle;html=1;whiteSpace=wrap;connectable=0;overflow=hidden;fillColor=none;top=0;left=0;bottom=0;right=0;pointerEvents=1;" vertex="1" parent="163">
                    <mxGeometry width="60" height="40" as="geometry">
                        <mxRectangle width="60" height="40" as="alternateBounds"/>
                    </mxGeometry>
                </mxCell>
                <mxCell id="165" value="32768" style="shape=partialRectangle;html=1;whiteSpace=wrap;connectable=0;overflow=hidden;fillColor=none;top=0;left=0;bottom=0;right=0;pointerEvents=1;" vertex="1" parent="163">
                    <mxGeometry x="60" width="60" height="40" as="geometry">
                        <mxRectangle width="60" height="40" as="alternateBounds"/>
                    </mxGeometry>
                </mxCell>
                <mxCell id="172" value="15" style="shape=partialRectangle;html=1;whiteSpace=wrap;connectable=0;overflow=hidden;fillColor=none;top=0;left=0;bottom=0;right=0;pointerEvents=1;" vertex="1" parent="163">
                    <mxGeometry x="120" width="60" height="40" as="geometry">
                        <mxRectangle width="60" height="40" as="alternateBounds"/>
                    </mxGeometry>
                </mxCell>
            </root>
        </mxGraphModel>
    </diagram>
</mxfile>